<svg width="455" height="87" viewBox="0 0 455 87" fill="none" xmlns="http://www.w3.org/2000/svg">
<g id="DRS TITTLE">
<path d="M10.544 46.64C3.76 46.64 0.175999 42.544 0.175999 35.632V11.568C0.175999 4.656 3.76 0.559998 10.544 0.559998C17.328 0.559998 20.912 4.656 20.912 11.568V16.304H14.256V11.12C14.256 8.176 12.848 6.96 10.736 6.96C8.624 6.96 7.216 8.176 7.216 11.12V36.144C7.216 39.088 8.624 40.24 10.736 40.24C12.848 40.24 14.256 39.088 14.256 36.144V29.296H20.912V35.632C20.912 42.544 17.328 46.64 10.544 46.64Z" fill="white"/>
<path d="M35.364 46.64C28.452 46.64 24.868 42.544 24.868 35.376V1.2H31.908V35.888C31.908 39.088 33.252 40.24 35.492 40.24C37.732 40.24 39.076 39.088 39.076 35.888V1.2H45.86V35.376C45.86 42.544 42.276 46.64 35.364 46.64Z" fill="white"/>
<path d="M48.893 46L56.189 1.2H65.725L73.021 46H65.981L64.701 37.104V37.232H56.701L55.421 46H48.893ZM57.533 31.152H63.869L60.733 9.008H60.605L57.533 31.152Z" fill="white"/>
<path d="M76.4365 46V1.2H86.8685C94.1645 1.2 97.3005 4.592 97.3005 11.504V14.256C97.3005 18.864 95.8285 21.808 92.6925 23.088V23.216C96.2125 24.304 97.3645 27.632 97.3645 32.688V40.56C97.3645 42.736 97.4285 44.336 98.1325 46H90.9645C90.5805 44.848 90.3245 44.144 90.3245 40.496V32.304C90.3245 28.144 89.1085 26.8 85.9085 26.8H83.4765V46H76.4365ZM83.4765 20.4H86.0365C88.6605 20.4 90.2605 19.248 90.2605 15.664V12.208C90.2605 9.008 89.1725 7.6 86.6765 7.6H83.4765V20.4Z" fill="white"/>
<path d="M107.628 46V7.6H100.268V1.2H122.028V7.6H114.668V46H107.628Z" fill="white"/>
<path d="M135.362 46.64C128.45 46.64 124.674 42.544 124.674 35.376V11.824C124.674 4.656 128.45 0.559998 135.362 0.559998C142.274 0.559998 146.05 4.656 146.05 11.824V35.376C146.05 42.544 142.274 46.64 135.362 46.64ZM135.362 40.24C137.602 40.24 139.011 39.024 139.011 35.824V11.376C139.011 8.176 137.602 6.96 135.362 6.96C133.122 6.96 131.714 8.176 131.714 11.376V35.824C131.714 39.024 133.122 40.24 135.362 40.24Z" fill="white"/>
<path d="M171.237 46.64C164.325 46.64 160.55 42.544 160.55 35.376V11.824C160.55 4.656 164.325 0.559998 171.237 0.559998C178.149 0.559998 181.925 4.656 181.925 11.824V35.376C181.925 42.544 178.149 46.64 171.237 46.64ZM171.237 40.24C173.477 40.24 174.886 39.024 174.886 35.824V11.376C174.886 8.176 173.477 6.96 171.237 6.96C168.997 6.96 167.589 8.176 167.589 11.376V35.824C167.589 39.024 168.997 40.24 171.237 40.24Z" fill="white"/>
<path d="M195.839 46.64C188.927 46.64 185.47 42.544 185.47 35.376V32.816H192.126V35.888C192.126 39.088 193.534 40.24 195.774 40.24C198.014 40.24 199.423 39.088 199.423 35.76C199.423 32.048 198.014 29.68 193.406 25.648C187.518 20.464 185.598 16.816 185.598 11.696C185.598 4.656 189.247 0.559998 196.095 0.559998C202.943 0.559998 206.335 4.656 206.335 11.824V13.68H199.679V11.376C199.679 8.176 198.398 6.96 196.158 6.96C193.918 6.96 192.638 8.176 192.638 11.248C192.638 14.512 194.11 16.88 198.718 20.912C204.606 26.096 206.462 29.68 206.462 35.248C206.462 42.544 202.751 46.64 195.839 46.64Z" fill="white"/>
<path d="M220.419 46.64C213.635 46.64 210.051 42.544 210.051 35.632V11.568C210.051 4.656 213.635 0.559998 220.419 0.559998C227.203 0.559998 230.787 4.656 230.787 11.568V16.304H224.131V11.12C224.131 8.176 222.723 6.96 220.611 6.96C218.499 6.96 217.091 8.176 217.091 11.12V36.144C217.091 39.088 218.499 40.24 220.611 40.24C222.723 40.24 224.131 39.088 224.131 36.144V29.296H230.787V35.632C230.787 42.544 227.203 46.64 220.419 46.64Z" fill="white"/>
<path d="M245.239 46.64C238.327 46.64 234.743 42.544 234.743 35.376V1.2H241.783V35.888C241.783 39.088 243.127 40.24 245.367 40.24C247.607 40.24 248.951 39.088 248.951 35.888V1.2H255.735V35.376C255.735 42.544 252.151 46.64 245.239 46.64Z" fill="white"/>
<path d="M260.749 46V1.2H271.181C278.477 1.2 281.613 4.592 281.613 11.504V14.256C281.613 18.864 280.141 21.808 277.005 23.088V23.216C280.525 24.304 281.677 27.632 281.677 32.688V40.56C281.677 42.736 281.741 44.336 282.445 46H275.277C274.893 44.848 274.637 44.144 274.637 40.496V32.304C274.637 28.144 273.421 26.8 270.221 26.8H267.789V46H260.749ZM267.789 20.4H270.349C272.973 20.4 274.573 19.248 274.573 15.664V12.208C274.573 9.008 273.485 7.6 270.989 7.6H267.789V20.4Z" fill="white"/>
<path d="M296.737 46.64C289.825 46.64 286.05 42.544 286.05 35.376V11.824C286.05 4.656 289.825 0.559998 296.737 0.559998C303.649 0.559998 307.426 4.656 307.426 11.824V35.376C307.426 42.544 303.649 46.64 296.737 46.64ZM296.737 40.24C298.977 40.24 300.386 39.024 300.386 35.824V11.376C300.386 8.176 298.977 6.96 296.737 6.96C294.497 6.96 293.09 8.176 293.09 11.376V35.824C293.09 39.024 294.497 40.24 296.737 40.24Z" fill="white"/>
<path d="M331.589 46.64C324.677 46.64 321.22 42.544 321.22 35.376V32.816H327.876V35.888C327.876 39.088 329.285 40.24 331.525 40.24C333.765 40.24 335.172 39.088 335.172 35.76C335.172 32.048 333.764 29.68 329.156 25.648C323.268 20.464 321.348 16.816 321.348 11.696C321.348 4.656 324.996 0.559998 331.844 0.559998C338.692 0.559998 342.085 4.656 342.085 11.824V13.68H335.429V11.376C335.429 8.176 334.149 6.96 331.909 6.96C329.669 6.96 328.388 8.176 328.388 11.248C328.388 14.512 329.861 16.88 334.469 20.912C340.357 26.096 342.212 29.68 342.212 35.248C342.212 42.544 338.501 46.64 331.589 46.64Z" fill="white"/>
<path d="M351.753 46V7.6H344.393V1.2H366.153V7.6H358.793V46H351.753Z" fill="white"/>
<path d="M379.801 46.64C372.889 46.64 369.305 42.544 369.305 35.376V1.2H376.345V35.888C376.345 39.088 377.69 40.24 379.93 40.24C382.17 40.24 383.513 39.088 383.513 35.888V1.2H390.297V35.376C390.297 42.544 386.713 46.64 379.801 46.64Z" fill="white"/>
<path d="M395.311 46V1.2H406.064C413.104 1.2 416.56 5.104 416.56 12.272V34.928C416.56 42.096 413.104 46 406.064 46H395.311ZM402.352 39.6H405.935C408.175 39.6 409.52 38.448 409.52 35.248V11.952C409.52 8.752 408.175 7.6 405.935 7.6H402.352V39.6Z" fill="white"/>
<path d="M421.311 46V1.2H428.352V46H421.311Z" fill="white"/>
<path d="M443.8 46.64C436.888 46.64 433.112 42.544 433.112 35.376V11.824C433.112 4.656 436.888 0.559998 443.8 0.559998C450.712 0.559998 454.488 4.656 454.488 11.824V35.376C454.488 42.544 450.712 46.64 443.8 46.64ZM443.8 40.24C446.04 40.24 447.448 39.024 447.448 35.824V11.376C447.448 8.176 446.04 6.96 443.8 6.96C441.56 6.96 440.152 8.176 440.152 11.376V35.824C440.152 39.024 441.56 40.24 443.8 40.24Z" fill="white"/>
<path d="M8.7098 77.213V70.2945H1.9428V66.3555H8.7098V59.538H12.6488V66.3555H19.4158V70.2945H12.6488V77.213H8.7098Z" fill="white"/>
<path d="M36.05 86.505C30.596 86.505 27.768 83.273 27.768 77.617V74.8395H33.02V78.021C33.02 80.546 34.131 81.455 35.8985 81.455C37.666 81.455 38.777 80.546 38.777 78.021V70.0925C38.777 67.5675 37.666 66.608 35.8985 66.608C34.131 66.608 33.02 67.5675 33.02 70.0925V70.3955H27.768L28.778 50.65H43.423V55.7H33.727L33.2725 64.1335H33.3735C34.3835 62.467 35.949 61.558 38.171 61.558C42.2615 61.558 44.332 64.4365 44.332 69.638V77.617C44.332 83.273 41.504 86.505 36.05 86.505Z" fill="white"/>
<path d="M74.3566 86.505C68.9026 86.505 65.9231 83.273 65.9231 77.617V59.033C65.9231 53.377 68.9026 50.145 74.3566 50.145C79.8106 50.145 82.7901 53.377 82.7901 59.033V77.617C82.7901 83.273 79.8106 86.505 74.3566 86.505ZM74.3566 81.455C76.1241 81.455 77.2351 80.4955 77.2351 77.9705V58.6795C77.2351 56.1545 76.1241 55.195 74.3566 55.195C72.5891 55.195 71.4781 56.1545 71.4781 58.6795V77.9705C71.4781 80.4955 72.5891 81.455 74.3566 81.455Z" fill="white"/>
<path d="M106.704 86L115.592 55.7H104.381V50.65H121.046V55.498L112.36 86H106.704Z" fill="white"/>
<path d="M177.599 86.505C172.145 86.505 169.166 83.273 169.166 77.617V59.336C169.166 53.377 171.893 50.145 177.65 50.145C183.104 50.145 185.932 53.377 185.932 59.033V59.6895H180.68V58.6795C180.68 56.1545 179.569 55.195 177.801 55.195C175.832 55.195 174.721 56.1545 174.721 59.538V66.305H174.822C175.781 64.285 177.397 63.2245 179.872 63.2245C183.962 63.2245 186.033 66.103 186.033 71.3045V77.617C186.033 83.273 183.053 86.505 177.599 86.505ZM177.599 81.455C179.518 81.455 180.478 80.344 180.478 78.021V71.759C180.478 69.3855 179.518 68.2745 177.599 68.2745C175.68 68.2745 174.721 69.3855 174.721 71.759V78.021C174.721 80.344 175.68 81.455 177.599 81.455Z" fill="white"/>
<path d="M207.725 86V82.162C207.725 77.112 209.139 74.0315 213.28 69.6885C217.522 65.194 218.734 62.5175 218.734 59.235C218.734 56.0535 217.623 55.195 215.855 55.195C214.088 55.195 212.977 56.1545 212.977 58.6795V62.467H207.725V59.033C207.725 53.377 210.553 50.145 216.007 50.145C221.461 50.145 224.289 53.377 224.289 59.033C224.289 63.2245 222.572 66.9615 217.421 72.4155C214.088 75.9505 213.229 77.718 213.229 80.1925V80.95H223.784V86H207.725Z" fill="white"/>
<path d="M254.364 86.505C248.91 86.505 246.082 83.273 246.082 77.617V74.8395H251.334V78.021C251.334 80.546 252.445 81.455 254.212 81.455C255.98 81.455 257.091 80.546 257.091 78.021V70.0925C257.091 67.5675 255.98 66.608 254.212 66.608C252.445 66.608 251.334 67.5675 251.334 70.0925V70.3955H246.082L247.092 50.65H261.737V55.7H252.041L251.586 64.1335H251.687C252.697 62.467 254.263 61.558 256.485 61.558C260.575 61.558 262.646 64.4365 262.646 69.638V77.617C262.646 83.273 259.818 86.505 254.364 86.505Z" fill="white"/>
<path d="M292.671 86.505C287.217 86.505 284.237 83.273 284.237 77.617V59.033C284.237 53.377 287.217 50.145 292.671 50.145C298.125 50.145 301.104 53.377 301.104 59.033V77.617C301.104 83.273 298.125 86.505 292.671 86.505ZM292.671 81.455C294.438 81.455 295.549 80.4955 295.549 77.9705V58.6795C295.549 56.1545 294.438 55.195 292.671 55.195C290.903 55.195 289.792 56.1545 289.792 58.6795V77.9705C289.792 80.4955 290.903 81.455 292.671 81.455Z" fill="white"/>
<path d="M331.078 86.505C325.473 86.505 322.392 83.4245 322.392 77.7685V74.6375C322.392 71.254 323.402 68.7795 326.028 67.416V67.315C323.705 66.0525 322.594 63.8305 322.594 60.346V58.8815C322.594 53.2255 325.675 50.145 331.078 50.145C336.482 50.145 339.562 53.2255 339.562 58.8815V60.346C339.562 63.8305 338.401 66.0525 336.128 67.315V67.416C338.754 68.7795 339.764 71.254 339.764 74.6375V77.7685C339.764 83.4245 336.684 86.505 331.078 86.505ZM331.078 65.0425C332.997 65.0425 334.007 63.8305 334.007 61.5075V58.73C334.007 56.407 332.997 55.195 331.078 55.195C329.159 55.195 328.149 56.407 328.149 58.73V61.5075C328.149 63.8305 329.159 65.0425 331.078 65.0425ZM331.078 81.455C333.149 81.455 334.209 80.142 334.209 77.4655V74.082C334.209 71.4055 333.149 70.0925 331.078 70.0925C329.008 70.0925 327.947 71.4055 327.947 74.082V77.4655C327.947 80.142 329.008 81.455 331.078 81.455Z" fill="white"/>
<path d="M369.233 86V59.033H363.426V55.094C368.122 55.094 369.789 54.084 371.051 50.65H374.788V86H369.233Z" fill="white"/>
<path d="M408.045 86.505C402.591 86.505 399.611 83.273 399.611 77.617V59.336C399.611 53.377 402.338 50.145 408.095 50.145C413.549 50.145 416.377 53.377 416.377 59.033V59.6895H411.125V58.6795C411.125 56.1545 410.014 55.195 408.247 55.195C406.277 55.195 405.166 56.1545 405.166 59.538V66.305H405.267C406.227 64.285 407.843 63.2245 410.317 63.2245C414.408 63.2245 416.478 66.103 416.478 71.3045V77.617C416.478 83.273 413.499 86.505 408.045 86.505ZM408.045 81.455C409.964 81.455 410.923 80.344 410.923 78.021V71.759C410.923 69.3855 409.964 68.2745 408.045 68.2745C406.126 68.2745 405.166 69.3855 405.166 71.759V78.021C405.166 80.344 406.126 81.455 408.045 81.455Z" fill="white"/>
<path d="M446.15 86.505C440.696 86.505 437.867 83.374 437.867 77.718V74.8395H443.119V77.9705C443.119 80.4955 444.23 81.455 445.998 81.455C447.765 81.455 448.876 80.5965 448.876 77.4655V74.587C448.876 71.3045 447.766 70.0925 445.241 70.0925H443.372V65.0425H445.392C447.463 65.0425 448.725 64.1335 448.725 61.3055V58.73C448.725 56.205 447.563 55.195 445.947 55.195C444.331 55.195 443.271 56.1545 443.271 58.4775V60.8005H438.019V58.932C438.019 53.276 440.847 50.145 446.15 50.145C451.452 50.145 454.28 53.2255 454.28 58.8815V60.144C454.28 63.9315 453.068 66.2545 450.341 67.2645V67.3655C453.32 68.4765 454.431 71.052 454.431 74.6375V77.7685C454.431 83.4245 451.604 86.505 446.15 86.505Z" fill="white"/>
</g>
</svg>
