<svg width="96" height="96" viewBox="0 0 96 96" fill="none" xmlns="http://www.w3.org/2000/svg">
<g id="GALLERY">
<path id="Rectangle 16" d="M0 24.3445C0 10.8994 10.7681 0 24.0512 0H71.9489C85.232 0 96 10.8994 96 24.3445V71.6555C96 85.1006 85.2319 96 71.9489 96H24.0511C10.768 96 0 85.1006 0 71.6555V24.3445Z" fill="white"/>
<path id="Rectangle 8" opacity="0.66" d="M35.8555 19.3171C35.8555 12.528 41.2928 7.02439 48 7.02439C54.7073 7.02439 60.1446 12.528 60.1446 19.3171V33.3658C60.1446 40.1549 54.7073 45.6585 48 45.6585C41.2928 45.6585 35.8555 40.1549 35.8555 33.3658V19.3171Z" fill="#FF5900"/>
<path id="Rectangle 9" opacity="0.66" d="M35.8555 62.6341C35.8555 55.8451 41.2928 50.3415 48 50.3415C54.7073 50.3415 60.1446 55.8451 60.1446 62.6341V76.6829C60.1446 83.472 54.7073 88.9756 48 88.9756C41.2928 88.9756 35.8555 83.472 35.8555 76.6829V62.6341Z" fill="#008CFF"/>
<path id="Rectangle 14" opacity="0.66" d="M31.1247 49.6678C35.8674 44.8673 43.5569 44.8673 48.2997 49.6678C53.0424 54.4684 53.0424 62.2517 48.2997 67.0523L38.4854 76.9863C33.7426 81.7869 26.0531 81.7869 21.3104 76.9863C16.5676 72.1857 16.5676 64.4024 21.3104 59.6018L31.1247 49.6678Z" fill="#8800FF"/>
<path id="Rectangle 15" opacity="0.66" d="M60.0404 20.3996C64.7832 15.599 72.4727 15.599 77.2155 20.3996C81.9582 25.2002 81.9582 32.9834 77.2155 37.784L67.4012 47.718C62.6584 52.5186 54.9689 52.5186 50.2261 47.718C45.4834 42.9174 45.4834 35.1341 50.2261 30.3335L60.0404 20.3996Z" fill="#FFC400"/>
<path id="Rectangle 10" opacity="0.66" d="M20.241 59.7073C13.5337 59.7073 8.09637 54.2037 8.09637 47.4146C8.09637 40.6256 13.5337 35.122 20.241 35.122H34.1205C40.8277 35.122 46.265 40.6256 46.265 47.4146C46.265 54.2037 40.8277 59.7073 34.1205 59.7073H20.241Z" fill="#FF1180"/>
<path id="Rectangle 12" opacity="0.66" d="M20.1538 37.784C15.4111 32.9834 15.4111 25.2002 20.1538 20.3996C24.8966 15.599 32.5861 15.599 37.3288 20.3996L47.1431 30.3335C51.8859 35.1341 51.8859 42.9174 47.1431 47.718C42.4004 52.5186 34.7109 52.5186 29.9681 47.718L20.1538 37.784Z" fill="#FF0004"/>
<path id="Rectangle 13" opacity="0.66" d="M50.2261 65.8816C45.4834 61.081 45.4834 53.2977 50.2261 48.4971C54.9689 43.6965 62.6584 43.6965 67.4012 48.4971L77.2155 58.4311C81.9582 63.2317 81.9582 71.015 77.2155 75.8156C72.4727 80.6162 64.7832 80.6162 60.0404 75.8156L50.2261 65.8816Z" fill="#34D271"/>
<path id="Rectangle 11" opacity="0.66" d="M63.0362 59.7073C56.3289 59.7073 50.8916 54.2037 50.8916 47.4146C50.8916 40.6256 56.3289 35.122 63.0362 35.122H76.9157C83.623 35.122 89.0603 40.6256 89.0603 47.4146C89.0603 54.2037 83.623 59.7073 76.9157 59.7073H63.0362Z" fill="#41B42A"/>
</g>
</svg>
