<svg width="96" height="96" viewBox="0 0 96 96" fill="none" xmlns="http://www.w3.org/2000/svg">
<g id="Instagram">
<g id="Fill">
<path d="M0 23.4146C0 10.4831 10.3537 0 23.1256 0H72.8744C85.6463 0 96 10.4831 96 23.4146V72.5854C96 85.5169 85.6463 96 72.8744 96H23.1256C10.3537 96 0 85.5169 0 72.5854V23.4146Z" fill="url(#paint0_radial_2_43)"/>
<path d="M0 23.4146C0 10.4831 10.3537 0 23.1256 0H72.8744C85.6463 0 96 10.4831 96 23.4146V72.5854C96 85.5169 85.6463 96 72.8744 96H23.1256C10.3537 96 0 85.5169 0 72.5854V23.4146Z" fill="url(#paint1_radial_2_43)"/>
</g>
<path id="Circle" d="M70.533 28.6829C70.533 30.9459 68.7211 32.7805 66.486 32.7805C64.2509 32.7805 62.439 30.9459 62.439 28.6829C62.439 26.4199 64.2509 24.5854 66.486 24.5854C68.7211 24.5854 70.533 26.4199 70.533 28.6829Z" fill="white"/>
<path id="Vector" fill-rule="evenodd" clip-rule="evenodd" d="M47.9855 67.9024C57.8838 67.9024 65.9079 59.778 65.9079 49.7561C65.9079 39.7341 57.8838 31.6098 47.9855 31.6098C38.0873 31.6098 30.0632 39.7341 30.0632 49.7561C30.0632 59.778 38.0873 67.9024 47.9855 67.9024ZM47.9855 62.0488C54.6908 62.0488 60.1265 56.5452 60.1265 49.7561C60.1265 42.967 54.6908 37.4634 47.9855 37.4634C41.2803 37.4634 35.8446 42.967 35.8446 49.7561C35.8446 56.5452 41.2803 62.0488 47.9855 62.0488Z" fill="white"/>
<path id="Vector_2" fill-rule="evenodd" clip-rule="evenodd" d="M31.2194 12.8781C21.0019 12.8781 12.719 21.2645 12.719 31.6098V64.3902C12.719 74.7355 21.0019 83.122 31.2194 83.122H64.7515C74.969 83.122 83.252 74.7355 83.252 64.3902V31.6098C83.252 21.2645 74.969 12.8781 64.7515 12.8781H31.2194ZM64.7515 18.7317H31.2194C24.1949 18.7317 18.5004 24.4974 18.5004 31.6098V64.3902C18.5004 71.5026 24.1949 77.2683 31.2194 77.2683H64.7515C71.7761 77.2683 77.4706 71.5026 77.4706 64.3902V31.6098C77.4706 24.4974 71.7761 18.7317 64.7515 18.7317Z" fill="white"/>
</g>
<defs>
<radialGradient id="paint0_radial_2_43" cx="0" cy="0" r="1" gradientUnits="userSpaceOnUse" gradientTransform="translate(35.2665 94.2439) rotate(40.4866) scale(77.5354 78.6637)">
<stop stop-color="#FDC001"/>
<stop offset="0.298077" stop-color="#FDC102"/>
<stop offset="0.673077" stop-color="#FE0960"/>
<stop offset="1" stop-color="#FB00C3"/>
</radialGradient>
<radialGradient id="paint1_radial_2_43" cx="0" cy="0" r="1" gradientUnits="userSpaceOnUse" gradientTransform="translate(6.93767 -1.7561) rotate(62.4334) scale(46.2232 46.4722)">
<stop stop-color="#6A00FF" stop-opacity="0.68"/>
<stop offset="1" stop-opacity="0"/>
</radialGradient>
</defs>
</svg>
