<svg width="96" height="96" viewBox="0 0 96 96" fill="none" xmlns="http://www.w3.org/2000/svg">
<g id="Vector">
<path d="M3.6 22.8C3.6 12.1961 12.1961 3.6 22.8 3.6H73.2C83.8039 3.6 92.4 12.1961 92.4 22.8V73.2C92.4 83.8039 83.8039 92.4 73.2 92.4H22.8C12.1961 92.4 3.6 83.8039 3.6 73.2V22.8Z" fill="white"/>
<path d="M0 6.876C0 3.078 3.156 0 7.05 0H88.95C92.844 0 96 3.078 96 6.876V89.124C96 92.922 92.844 96 88.95 96H7.05C3.156 96 0 92.922 0 89.124V6.876ZM29.658 80.364V37.014H15.252V80.364H29.658ZM22.458 31.092C27.48 31.092 30.606 27.768 30.606 23.604C30.516 19.35 27.486 16.116 22.554 16.116C17.622 16.116 14.4 19.356 14.4 23.604C14.4 27.768 17.526 31.092 22.362 31.092H22.458ZM51.906 80.364V56.154C51.906 54.858 52.002 53.562 52.386 52.638C53.424 50.052 55.794 47.37 59.778 47.37C64.992 47.37 67.074 51.342 67.074 57.174V80.364H81.48V55.5C81.48 42.18 74.376 35.988 64.896 35.988C57.252 35.988 53.826 40.188 51.906 43.146V43.296H51.81L51.906 43.146V37.014H37.506C37.686 41.082 37.506 80.364 37.506 80.364H51.906Z" fill="#0274B3"/>
</g>
</svg>
