<svg width="96" height="96" viewBox="0 0 96 96" fill="none" xmlns="http://www.w3.org/2000/svg">
<g id="Whatsapp">
<g id="Fill">
<path d="M94.1103 47.4215C94.1103 72.3341 73.8233 92.5298 48.798 92.5298C23.7727 92.5298 3.48566 72.3341 3.48566 47.4215C3.48566 22.5089 23.7727 2.31324 48.798 2.31324C73.8233 2.31324 94.1103 22.5089 94.1103 47.4215Z" fill="url(#paint0_linear_2_10)"/>
<path d="M5.80937 90.2166L11.6186 70.554C17.1955 78.419 23.6245 83.084 26.1418 84.4334L5.80937 90.2166Z" fill="url(#paint1_linear_2_10)"/>
</g>
<path id="Vector" d="M81.9749 13.9563C77.5546 9.51328 72.2899 5.99099 66.4878 3.59488C60.6856 1.19878 54.4623 -0.0231648 48.1808 0.000332549C21.8604 0.000332549 0.409844 21.3483 0.385736 47.5562C0.385736 55.9501 2.59166 64.1161 6.7564 71.3461L0 96L25.338 89.388C32.3445 93.1934 40.1994 95.1844 48.1808 95.178H48.2049C74.5314 95.178 95.9759 73.8301 96 47.5982C96.0053 41.3465 94.7684 35.1556 92.3603 29.3819C89.9522 23.6081 86.4266 18.3657 81.9749 13.9563ZM48.1808 87.126C41.0638 87.1205 34.0787 85.2142 27.9538 81.606L26.5073 80.7421L11.4756 84.666L15.4897 70.0681L14.5495 68.5621C10.5704 62.2641 8.46598 54.9723 8.48016 47.5322C8.48016 25.7762 26.3024 8.02831 48.2049 8.02831C53.4228 8.01899 58.591 9.03795 63.4115 11.0264C68.2319 13.0149 72.6093 15.9336 76.2913 19.6143C79.9853 23.2811 82.9139 27.6395 84.9082 32.4382C86.9026 37.2369 87.9233 42.381 87.9116 47.5742C87.8875 69.4081 70.0653 87.126 48.1808 87.126ZM69.9688 57.5221C68.7815 56.9281 62.9171 54.0541 61.8141 53.6461C60.7172 53.2561 59.9156 53.0522 59.1321 54.2401C58.3305 55.4221 56.0402 58.1161 55.3531 58.8901C54.666 59.6881 53.9548 59.7781 52.7614 59.1901C51.5741 58.5901 47.7227 57.3421 43.1662 53.2802C39.6102 50.1302 37.2295 46.2302 36.5183 45.0482C35.8312 43.8602 36.452 43.2242 37.0487 42.6302C37.5731 42.1022 38.2361 41.2382 38.8327 40.5542C39.4354 39.8702 39.6343 39.3662 40.0261 38.5742C40.4179 37.7702 40.231 37.0862 39.9357 36.4922C39.6343 35.8982 37.2536 30.0362 36.2471 27.6722C35.2828 25.3382 34.3003 25.6622 33.565 25.6322C32.8779 25.5902 32.0763 25.5902 31.2747 25.5902C30.6695 25.6056 30.0739 25.7451 29.5253 26.0001C28.9766 26.2551 28.4868 26.6201 28.0864 27.0722C26.9894 28.2602 23.9216 31.1342 23.9216 36.9962C23.9216 42.8582 28.2009 48.4922 28.8036 49.2902C29.3943 50.0882 37.2054 62.0821 49.1934 67.2421C52.0261 68.4721 54.2561 69.1981 55.998 69.7501C58.8609 70.6621 61.4465 70.5241 63.5078 70.2301C65.7981 69.8821 70.5655 67.3501 71.5721 64.5721C72.5605 61.7881 72.5605 59.4121 72.2591 58.9141C71.9638 58.4101 71.1622 58.1161 69.9688 57.5221Z" fill="white"/>
</g>
<defs>
<linearGradient id="paint0_linear_2_10" x1="3.48566" y1="92.5298" x2="93.7013" y2="1.90606" gradientUnits="userSpaceOnUse">
<stop stop-color="#23B33A"/>
<stop offset="1" stop-color="#40EE54"/>
</linearGradient>
<linearGradient id="paint1_linear_2_10" x1="3.48566" y1="92.5298" x2="93.7013" y2="1.90606" gradientUnits="userSpaceOnUse">
<stop stop-color="#23B33A"/>
<stop offset="1" stop-color="#40EE54"/>
</linearGradient>
</defs>
</svg>
